PathFileType	3	(X/Y/Z)	E:\ViconData\BIOM9541 2025\Week 7\Wed1100\Hanif 90 squat 2-5 Squat 01.trc
DataRate	CameraRate	NumFrames	NumMarkers	Units	OrigDataRate	OrigDataStartFrame	OrigNumFrames
200.0	200.0	20	19	mm	200.0	1101	1467	
Frame#	Time	C7			CLAV			RBAK			LASI			RASI			LPSI			RPSI			LTHI			LKNE			LTIB			LANK			LHEE			LTOE			RTHI			RKNE			RTIB			RANK			RHEE			RTOE			
		X1	Y1	Z1	X2	Y2	Z2	X3	Y3	Z3	X4	Y4	Z4	X5	Y5	Z5	X6	Y6	Z6	X7	Y7	Z7	X8	Y8	Z8	X9	Y9	Z9	X10	Y10	Z10	X11	Y11	Z11	X12	Y12	Z12	X13	Y13	Z13	X14	Y14	Z14	X15	Y15	Z15	X16	Y16	Z16	X17	Y17	Z17	X18	Y18	Z18	X19	Y19	Z19	
1101	5.5	313.2142	956.33313	-1208.0092	176.30811	869.1673	-1198.4897	341.53287	876.38538	-1355.6168	292.72507	523.73828	-1080.8931	279.99603	543.35254	-1342.356	458.4187	586.83075	-1167.5237	456.2178	584.66913	-1241.6852	171.12172	431.66223	-931.34485	75.735435	345.65399	-889.49927	198.44246	181.39166	-917.40039	297.69424	68.072731	-972.21448	318.7872	54.439255	-1030.0773	160.03783	38.852348	-940.98535	306.09558	498.96478	-1420.7313	81.68692	337.68152	-1521.5667	122.5243	266.31451	-1521.4447	287.75803	72.38221	-1445.2737	317.33368	53.80209	-1375.2197	161.8699	40.284363	-1472.8308
1102	5.505	313.12888	955.50397	-1208.1027	176.22264	868.23273	-1198.4396	341.4353	875.59668	-1355.7421	292.82791	523.09851	-1080.6221	280.09692	542.58612	-1342.4829	458.62064	586.01642	-1167.698	456.33261	583.48669	-1241.9091	171.54088	431.56769	-931.24426	75.991692	345.78702	-889.2243	198.51355	181.49083	-917.23315	297.60687	68.353767	-971.96338	318.80121	54.40654	-1030.0625	160.07294	38.87896	-941.00403	306.30936	498.28238	-1420.6925	81.582268	337.53268	-1521.6234	122.44418	266.17593	-1521.4543	287.76575	72.348167	-1445.2524	317.29895	53.798283	-1375.1906	161.87024	40.234257	-1472.8358
1103	5.51	313.026	954.61285	-1208.2036	176.2011	867.32294	-1198.479	341.2395	874.74713	-1355.826	293.23315	522.39813	-1080.8337	280.15222	541.76929	-1342.5084	458.81775	585.25464	-1167.9653	456.5296	582.97809	-1242.0327	171.91304	431.42224	-931.18188	76.287071	345.87582	-889.07568	198.62445	181.56134	-917.09601	297.56293	67.943703	-972.08807	318.78241	54.344772	-1030.0428	160.1039	38.852947	-940.99225	306.42087	497.75049	-1420.6652	81.476509	337.39172	-1521.6582	122.31516	266.04303	-1521.4419	287.75848	72.319962	-1445.22	317.28912	53.799908	-1375.209	161.90399	40.221039	-1472.8839
1104	5.515	312.92581	953.84619	-1208.2108	176.09532	866.4397	-1198.4771	341.11563	874.08435	-1355.92	293.62137	521.7652	-1081.025	280.23367	540.97009	-1342.4755	459.03989	584.4585	-1168.1637	456.6037	582.11731	-1242.1833	172.31082	431.2919	-931.13977	76.561874	345.97958	-888.92365	198.74568	181.61597	-917.00018	297.30505	67.171516	-972.25708	318.7811	54.295334	-1030.0302	160.09283	38.804092	-940.80872	306.54306	497.23547	-1420.7025	81.364418	337.28387	-1521.6882	122.1633	265.94797	-1521.4116	287.71228	72.319542	-1445.1932	317.27289	53.743046	-1375.2035	161.87837	40.21093	-1472.8877
1105	5.52	312.85147	953.04773	-1208.2856	176.09393	865.64886	-1198.5364	340.957	873.2583	-1356.0035	293.88037	521.07166	-1080.9305	280.2034	540.36554	-1342.6555	459.25543	583.76532	-1168.3732	456.79837	581.6015	-1242.3361	172.69173	431.18936	-931.11804	76.825584	346.05841	-888.8183	198.85313	181.65987	-916.92084	297.52112	67.766983	-972.05121	318.75415	54.286076	-1030.0341	160.09109	38.807072	-940.7453	306.66171	496.81003	-1420.7617	81.257797	337.22305	-1521.6959	122.03182	265.89545	-1521.3778	287.66345	72.361519	-1445.1405	317.26767	53.716438	-1375.2094	161.85754	40.223267	-1472.8833
1106	5.525	312.80032	952.39679	-1208.2827	176.07022	864.79364	-1198.45	340.81906	872.58478	-1356.0475	294.11285	520.45172	-1080.8284	280.49677	539.4325	-1342.573	459.47345	583.10181	-1168.462	456.84705	580.66321	-1242.5605	173.08757	431.08478	-931.12335	77.110283	346.2077	-888.69373	199.00375	181.6655	-916.90497	297.32489	67.172722	-972.22156	318.83301	54.36306	-1030.098	160.12022	38.846378	-940.69336	306.78711	496.34283	-1420.6722	81.173103	337.19049	-1521.6935	121.93021	265.92719	-1521.3726	287.65186	72.402199	-1445.1093	317.26242	53.752834	-1375.1394	161.854	40.249836	-1472.8842
1107	5.53	312.75027	951.69659	-1208.3383	176.0598	864.03021	-1198.4849	340.68399	871.89655	-1356.0818	294.42471	519.89929	-1080.7964	280.6795	538.66504	-1342.6865	459.66003	582.48926	-1168.5769	457.02869	580.08765	-1242.7468	173.50897	431.04654	-931.125	77.347107	346.34567	-888.56018	199.07489	181.73586	-916.83032	297.34839	67.150642	-972.24811	318.8114	54.327892	-1030.0649	160.16216	38.872517	-940.65558	306.94058	495.91818	-1420.7255	81.116516	337.15317	-1521.7141	121.89363	265.87589	-1521.3539	287.64917	72.412041	-1445.0852	317.23849	53.751518	-1375.0847	162.19312	40.427689	-1473.2424
1108	5.535	312.69141	950.94159	-1208.4031	176.02303	863.27271	-1198.4525	340.64148	871.20563	-1356.1644	294.78629	519.34729	-1080.8829	280.86633	537.88586	-1342.7445	459.90057	581.87091	-1169.0029	457.24231	579.63153	-1242.97	173.90317	430.97049	-931.18188	77.573059	346.46674	-888.38434	199.22354	181.79823	-916.82495	297.40659	67.103035	-972.26459	318.83124	54.247944	-1030.0475	160.19771	38.834599	-940.65613	307.10608	495.45654	-1420.6605	81.094025	337.02075	-1521.7017	121.84191	265.79944	-1521.3229	287.65994	72.384674	-1445.0343	317.2702	53.714828	-1375.1733	162.23001	40.390564	-1473.2571
1109	5.54	312.66061	950.31348	-1208.4849	176.00102	862.53912	-1198.4061	340.60114	870.55878	-1356.2631	295.17746	518.85608	-1081.1039	280.9986	537.18091	-1342.7365	460.15399	581.37286	-1169.3055	457.32205	579.01532	-1243.1074	174.26372	430.95609	-931.16492	77.881577	346.61099	-888.27399	199.32669	181.8372	-916.78198	297.43854	67.101883	-972.31116	318.86719	54.215557	-1030.0636	160.24815	38.805347	-940.65295	307.23135	495.06131	-1420.7461	81.055763	336.95023	-1521.697	121.80592	265.72293	-1521.2782	287.66748	72.341911	-1445.0223	317.23288	53.715919	-1375.1222	162.23534	40.336861	-1473.2637
1110	5.545	312.61038	949.57257	-1208.535	176.01144	861.83612	-1198.3649	340.46085	869.83539	-1356.3325	295.53	518.3446	-1081.1226	281.0621	536.59717	-1342.8011	460.31528	580.83649	-1169.2361	457.4198	578.22876	-1243.3158	174.68051	430.91818	-931.19855	78.173752	346.73148	-888.18176	199.4521	181.81563	-916.77161	297.48926	67.135689	-972.30322	318.90424	54.287346	-1030.1014	160.24721	38.83392	-940.58539	307.40735	494.71857	-1420.7732	81.002243	336.96399	-1521.679	121.76461	265.79526	-1521.2465	287.67477	72.386063	-1444.9985	318.07291	53.413624	-1376.9374	162.21049	40.418247	-1473.3042
1111	5.55	312.52179	948.97186	-1208.5515	176.00212	861.0993	-1198.3646	340.39752	869.30981	-1356.4167	295.81708	517.83978	-1081.0587	281.13556	536.02606	-1342.7683	460.46606	580.34039	-1169.0618	457.49158	577.55042	-1243.4222	175.08981	430.81683	-931.25629	78.444916	346.85001	-888.11115	199.5721	181.83583	-916.74744	297.70587	67.722427	-972.01965	318.96664	54.458832	-1030.1627	160.27432	38.883671	-940.52893	307.5278	494.47855	-1420.7694	80.939453	337.06036	-1521.63	121.72624	265.88425	-1521.2031	287.63132	72.541679	-1444.9691	317.12772	53.792942	-1374.8723	161.97977	40.328239	-1473.0352
1112	5.555	312.49673	948.41382	-1208.6246	175.95831	860.47552	-1198.3558	340.32864	868.74353	-1356.5258	295.98956	517.31213	-1080.808	281.20349	535.52069	-1342.8834	460.69174	579.9325	-1169.283	457.60645	576.97083	-1243.609	175.48682	430.83276	-931.30725	78.733818	346.9455	-888.09125	199.69185	181.882	-916.73608	297.70612	67.715416	-971.99493	318.99701	54.487442	-1030.1975	160.28943	38.889824	-940.47339	307.63901	494.23877	-1420.8075	80.884674	337.09103	-1521.5796	121.70422	265.93332	-1521.1492	287.61911	72.582825	-1444.9503	317.85519	52.799007	-1377.5756	161.96753	40.333031	-1473.0697
1113	5.56	312.4762	947.78656	-1208.7474	175.98251	859.92303	-1198.4474	340.25928	868.12115	-1356.6261	296.29745	516.84381	-1080.8896	281.33768	534.9964	-1343.0099	460.99362	579.42224	-1169.7013	457.85361	576.62939	-1243.8252	175.85579	430.8905	-931.33954	78.994881	347.13986	-888.06842	199.80272	181.98334	-916.7113	297.72595	67.634842	-972.01447	318.92667	54.280537	-1030.0945	160.32324	38.871361	-940.44891	307.78348	493.91373	-1420.7496	80.867195	337.03162	-1521.5275	121.68995	265.91034	-1521.0873	287.63379	72.543068	-1444.9419	317.14041	53.725113	-1374.9537	161.99603	40.318768	-1473.1459
1114	5.565	312.43616	947.1889	-1208.8579	175.99811	859.32697	-1198.5339	340.13684	867.54797	-1356.6736	296.65717	516.41345	-1081.0056	281.46194	534.48706	-1343.0491	461.28772	578.92694	-1170.1453	458.12292	576.55963	-1243.9468	176.20369	430.98608	-931.39502	79.24736	347.38995	-888.026	199.89421	182.08769	-916.7132	297.84283	67.627815	-972.09406	318.89108	54.155628	-1030.0365	160.3405	38.842995	-940.40002	307.95453	493.56235	-1420.7628	80.866287	337.0029	-1521.4587	121.68678	265.86987	-1521.0138	287.67874	72.465851	-1444.9254	317.9129	52.711918	-1377.7196	162.02388	40.264034	-1473.1379
1115	5.57	312.39572	946.75671	-1208.979	175.99356	858.73438	-1198.4966	340.06775	867.06647	-1356.7856	297.03729	516.00342	-1081.1556	281.52902	534.07178	-1343.0729	461.50888	578.4931	-1170.2385	458.35101	575.97314	-1244.2484	176.59805	431.02768	-931.49817	79.529099	347.5787	-888.03149	200.04597	182.16736	-916.73358	297.84726	67.634262	-972.04565	318.85181	54.118614	-1030.0076	160.34238	38.858398	-940.43463	308.13373	493.26562	-1420.7224	80.843384	337.03098	-1521.3917	121.6687	265.91354	-1520.951	287.66187	72.478912	-1444.9116	317.17383	53.679729	-1375.0726	162.02525	40.295834	-1473.1779
1116	5.575	312.32419	946.26898	-1208.99	176.0312	858.19983	-1198.5747	339.98898	866.56598	-1356.8601	297.43863	515.58502	-1081.3978	281.61108	533.76746	-1343.219	461.7626	578.10864	-1170.2126	458.49591	575.47675	-1244.3589	176.95201	431.021	-931.57056	79.824181	347.73196	-888.05914	200.20239	182.2807	-916.74469	297.87561	67.680519	-972.00116	318.85916	54.164104	-1029.9882	160.38702	38.897346	-940.40186	308.29193	493.12854	-1420.8	80.834366	337.12723	-1521.3306	121.63926	266.01923	-1520.8702	287.63745	72.569809	-1444.8782	317.86624	52.764526	-1377.6544	161.9908	40.341198	-1473.1776
1117	5.58	312.32855	945.76447	-1209.1592	176.03583	857.64288	-1198.5725	339.94669	866.12262	-1356.959	297.75406	515.2074	-1081.42	281.80722	533.40582	-1343.1896	461.97534	577.84491	-1170.1353	458.56726	574.85504	-1244.4244	177.27489	431.00906	-931.65192	80.059937	347.88516	-888.02655	200.29543	182.3047	-916.73743	297.90451	67.728218	-971.94379	318.98981	54.339149	-1030.087	160.43399	38.95821	-940.40314	308.49036	492.88837	-1420.7676	80.839371	337.23111	-1521.2533	121.64083	266.12759	-1520.8031	287.63751	72.647507	-1444.8506	317.33118	53.771759	-1375.1459	161.9924	40.352726	-1473.1267
1118	5.585	312.23691	945.23853	-1209.2311	176.04947	857.04242	-1198.5735	339.9317	865.7124	-1357.13	297.99448	514.81812	-1081.2832	281.91599	533.1568	-1343.2999	462.21484	577.48334	-1170.2747	458.7312	574.3103	-1244.5164	177.60483	431.09625	-931.71185	80.328117	348.0112	-888.04077	200.40361	182.41908	-916.69946	298.02151	67.796608	-971.97595	319.03574	54.346828	-1030.0732	160.44008	38.942799	-940.35138	308.69571	492.64124	-1420.7693	80.868652	337.2753	-1521.2073	121.65971	266.15167	-1520.7235	287.67215	72.648453	-1444.8403	317.83929	52.765522	-1377.5239	162.00946	40.375278	-1473.1501
1119	5.59	312.22906	944.86969	-1209.3639	176.078	856.54919	-1198.6697	339.82825	865.26117	-1357.2351	298.30212	514.47247	-1081.2837	282.14597	532.78009	-1343.3445	462.4642	577.02136	-1170.5602	459.07501	574.32056	-1244.5721	177.96402	431.13275	-931.77789	80.569771	348.18845	-888.0365	200.50716	182.52515	-916.67236	298.05237	67.805473	-971.96643	319.03549	54.214573	-1030.0535	160.47366	38.916973	-940.42542	308.88715	492.41431	-1420.7651	80.907112	337.2327	-1521.1396	121.69345	266.11996	-1520.6484	287.69843	72.570328	-1444.8184	317.08533	53.68129	-1374.8953	162.02943	40.332512	-1473.1774
1120	5.595	312.17825	944.47217	-1209.426	176.07904	856.08276	-1198.6805	339.74353	864.84766	-1357.349	298.60489	514.12921	-1081.3376	282.30112	532.44476	-1343.4235	462.70969	576.61877	-1170.8306	459.388	574.01727	-1244.8042	178.27383	431.25269	-931.8302	80.82798	348.39288	-888.05682	200.61308	182.68393	-916.63873	300.18787	70.10025	-974.80603	318.57669	53.33794	-1029.4453	160.43123	38.867126	-940.36365	309.07587	492.20404	-1420.7522	80.960434	337.20874	-1521.0925	121.72797	266.11475	-1520.5826	287.70364	72.496933	-1444.7908	317.86807	52.650982	-1377.6354	162.02568	40.301128	-1473.1865
